# xmcd CD database file
#
# Track frame offsets:
#	150
#	21321
#	46293
#	66247
#	90349
#	118938
#	140753
#	161445
#	190735
#	212308
#
# Disc length: 3060 seconds
#
# Revision: 0
# Processed by: cddbd v1.5.2PL0 Copyright (c) Steve Scherf et al.
# Submitted via: CDex 1.82
#
DISCID=860bf20a
DTITLE=Najee - Poetry In Motion 
DYEAR=2017
DGENRE=Jazz
TTITLE0=Stratosphere
TTITLE1=Is It The Way
TTITLE2=Let's Take It Back
TTITLE3=Noche Romantica 
TTITLE4=We'll Be Missing You
TTITLE5=Song For The Ladies
TTITLE6=Don't Make Me Wait
TTITLE7=Poetry In Motion
TTITLE8=Running Away
TTITLE9=Duolology
EXTD=YEAR: 2017
EXTT0=
EXTT1=
EXTT2=
EXTT3=
EXTT4=
EXTT5=
EXTT6=
EXTT7=
EXTT8=
EXTT9=
PLAYORDER=
